<svg xmlns="http://www.w3.org/2000/svg" width="305" height="304" viewBox="0 0 305 304"><path fill="#38c2f7" d="M90.966 183.84c-15.728 0-28.526 12.856-28.526 28.655 0 15.801 12.798 28.657 28.526 28.657 15.729 0 28.526-12.856 28.526-28.657 0-15.8-12.797-28.655-28.526-28.655M304.406 273.84c0-.02-.003-.039-.003-.06v-.128c-.068-15.743-12.834-28.532-28.522-28.532-15.686 0-28.45 12.789-28.518 28.532v.126c0 .022-.003.041-.003.062.034 15.772 12.814 28.592 28.521 28.592 15.71 0 28.49-12.82 28.525-28.592M275.84 239.95l.045-.003c.016 0 .03.003.046.003 15.666-.027 28.407-12.803 28.475-28.528v-.252c-.068-15.741-12.835-28.53-28.521-28.53-15.729 0-28.525 12.856-28.525 28.657 0 15.783 12.77 28.626 28.48 28.653"/><path fill="#56ccbd" d="M180.734 212.712c0-.043-.007-.083-.007-.125v-61.375c0-.021.004-.04.004-.062-.036-15.77-12.817-28.59-28.523-28.59-15.73 0-28.528 12.854-28.528 28.655v122.746c0 15.8 12.798 28.655 28.528 28.655 15.728 0 28.526-12.855 28.526-28.655zM304.054 90.152c0-.043-.007-.083-.007-.125V28.652c0-.021.004-.04.004-.062C304.015 12.82 291.234 0 275.528 0 259.798 0 247 12.854 247 28.655v122.746c0 15.8 12.798 28.655 28.528 28.655 15.728 0 28.526-12.855 28.526-28.655z"/><path fill="#da2e74" d="M28.756 246.708C12.967 246.708.12 259.515.12 275.253c0 15.74 12.847 28.547 28.636 28.547H90.09c15.79 0 28.637-12.806 28.637-28.547 0-15.738-12.848-28.545-28.637-28.545zM213.445 302.527c15.728 0 28.526-12.856 28.526-28.656v-61.374c0-15.801-12.798-28.657-28.526-28.657-15.729 0-28.525 12.856-28.525 28.657v61.374c0 15.8 12.796 28.656 28.525 28.656M214.645 179.967c15.728 0 28.526-12.856 28.526-28.656V89.937c0-15.801-12.798-28.657-28.526-28.657-15.729 0-28.525 12.856-28.525 28.657v61.374c0 15.8 12.796 28.656 28.525 28.656"/></svg>